# xmcd
#
# Track frame offsets: 
#        150
#        14769
#        27874
#        51644
#        64098
#        78649
#        92905
#        107710
#        136084
#        153804
#        168226
#        182504
#        196856
#        212789
#        229381
#        248129
#
# Disc length: 3833 seconds
#
# Revision: 0
# Processed by: cddbd v1.5.2PL0 Copyright (c) Steve Scherf et al.
# Submitted via: ExactAudioCopyFreeDBPlugin 1.0
#
DISCID=d90ef710
DTITLE=Jeff Zima - Jeff Zima - Kidney Stew
DYEAR=2014
DGENRE=Blues
TTITLE0=Talk To Me Baby
TTITLE1=8th Ave. Swing
TTITLE2=I'd Rather Drink Muddy Water
TTITLE3=When The Saints Go Marching In
TTITLE4=300 lbs. of Joy
TTITLE5=Guitar King
TTITLE6=The Hangover Song
TTITLE7=R18
TTITLE8=Mess Around
TTITLE9=Walkin' My Blues Away
TTITLE10=Mambo Deluxe
TTITLE11=Drinkin' Blues
TTITLE12=Kidney Stew
TTITLE13=Diamond Time
TTITLE14=(Aint That) Just Like A Woman
TTITLE15=Sippin' Whiskey
EXTD=
EXTT0=
EXTT1=
EXTT2=
EXTT3=
EXTT4=
EXTT5=
EXTT6=
EXTT7=
EXTT8=
EXTT9=
EXTT10=
EXTT11=
EXTT12=
EXTT13=
EXTT14=
EXTT15=
PLAYORDER=
